<svg width="55" height="88" viewBox="0 0 55 88" fill="none" xmlns="http://www.w3.org/2000/svg">
<path d="M53.7701 0.277344H1.31651C0.762184 0.277344 0.346436 0.693092 0.346436 1.24742V41.9907V46.7718V87.0301C0.346436 87.5844 0.762184 88.0002 1.31651 88.0002H53.7701C54.3244 88.0002 54.7401 87.5844 54.7401 87.0301V46.7718V41.9907V1.24742C54.7401 0.693092 54.3244 0.277344 53.7701 0.277344ZM4.78108 5.68207V5.19703C4.78108 4.91986 4.98896 4.6427 5.33541 4.6427H5.82045H49.4047H49.8897C50.1669 4.6427 50.4441 4.85057 50.4441 5.19703V5.68207V44.901L28.3401 67.0049L27.9937 67.3514C27.7858 67.5592 27.4394 67.5592 27.2315 67.3514L26.885 67.0049L4.78108 44.901V5.68207ZM50.3055 82.5955V83.0805C50.3055 83.3577 50.0976 83.6348 49.7512 83.6348H49.2661H5.75116H5.26612C4.98896 83.6348 4.71179 83.4269 4.71179 83.0805V82.5955V51.1372L26.8157 73.2411C27.1622 73.5876 27.7858 73.5876 28.2016 73.2411L50.3055 51.1372V82.5955Z" fill="black"/>
</svg>
